<svg width="126" height="126" viewBox="0 0 126 126" fill="none" xmlns="http://www.w3.org/2000/svg">
<g clip-path="url(#clip0_19_314)">
<path d="M0 70.1569C1.23047 66.5907 2.47324 63.0294 3.66434 59.4533C6.97676 49.5068 10.2761 39.5585 13.5622 29.6087C14.8419 25.7558 17.3422 23.9418 21.3659 23.9418H26.0859C26.0859 23.1633 26.0859 22.4392 26.0859 21.7175C26.1229 20.1136 27.0974 19.0286 28.5075 18.999C29.9595 18.9767 30.9684 20.0913 31.0029 21.762C31.0152 22.4194 31.0029 23.0768 31.0029 23.8355H40.8466C40.8466 23.0941 40.8245 22.3378 40.8466 21.5717C40.9106 20.0666 41.9221 19.0113 43.2904 18.999C44.6586 18.9866 45.7021 20.0394 45.7636 21.5297C45.7956 22.2711 45.7636 23.0125 45.7636 23.8405H55.6073C55.6073 23.099 55.5852 22.323 55.6073 21.5569C55.6812 20.0567 56.7025 18.999 58.0781 18.999C59.4538 18.999 60.4775 20.0493 60.5391 21.5445C60.5686 22.2859 60.5391 23.0274 60.5391 23.8454H70.3828C70.3828 23.0793 70.3582 22.3107 70.3828 21.5421C70.4419 20.0592 71.4755 18.994 72.8438 18.999C74.212 19.0039 75.2309 20.0592 75.2899 21.5594C75.317 22.3008 75.2899 23.0422 75.2899 23.9344C76.5327 23.9344 77.7041 23.9344 78.878 23.9344C83.4602 23.9591 86.5905 27.0978 86.6102 31.7044C86.625 35.5747 86.6102 39.4473 86.6275 43.32C86.6522 43.4531 86.6884 43.5837 86.7357 43.7105H87.9933C95.2924 43.7105 102.593 43.7105 109.896 43.7105C113.587 43.7105 115.999 45.354 117.379 48.804C120.085 55.5592 122.781 62.3144 125.468 69.0695C125.616 69.4427 125.815 69.7961 125.993 70.1569V91.9052C125.905 92.0893 125.828 92.2783 125.761 92.4712C124.698 96.0424 122.031 98.059 118.322 98.0837C117.547 98.0837 116.774 98.0837 116.107 98.0837L113.941 103.027C116.865 103.027 119.766 103.091 122.665 102.999C124.179 102.952 125.279 103.422 126.002 104.757V106.239C125.276 107.574 124.169 107.999 122.658 107.997C106.744 107.955 90.8365 107.946 74.9355 107.969C74.5249 107.988 74.1135 107.974 73.7051 107.927C73.1211 107.84 72.5885 107.543 72.2055 107.091C71.8225 106.64 71.615 106.065 71.6213 105.472C71.6276 104.879 71.8472 104.308 72.2397 103.865C72.6322 103.422 73.171 103.136 73.7568 103.061C74.1656 103.021 74.5768 103.009 74.9872 103.027H93.7617L91.6109 98.1505H55.5877C54.7608 99.9373 53.988 101.596 53.2744 103.138C53.6435 103.825 54.1751 104.455 54.3277 105.169C54.6722 106.793 53.3433 107.967 51.313 107.969C35.3251 107.969 19.3356 107.978 3.34441 107.994C1.83586 107.994 0.723516 107.581 0 106.239V104.757C0.721055 103.417 1.82355 102.955 3.33949 102.999C6.40582 103.088 9.49184 103.029 12.5483 103.024C12.8879 103.024 13.2251 102.975 13.5032 102.952C12.7772 101.309 12.0906 99.7396 11.3572 98.0813C10.08 98.0813 8.68957 98.1109 7.3016 98.0813C4.75945 98.0096 2.69965 96.9419 1.30184 94.8067C0.738281 93.9268 0.425742 92.8765 0 91.9052V70.1569ZM81.7031 93.0965V92.2315C81.7031 72.0896 81.7031 51.9477 81.7031 31.8058C81.7031 29.7496 80.7704 28.8846 78.6196 28.8846H21.4102C19.4734 28.8846 18.8459 29.3591 18.2109 31.2695C13.8846 44.2921 9.55828 57.318 5.23195 70.3472C5.06607 70.7666 4.96643 71.2093 4.93664 71.6595C4.91941 78.0036 4.90957 84.3452 4.93664 90.6893C4.91451 91.3009 5.13285 91.8968 5.54451 92.3481C5.95616 92.7994 6.52807 93.07 7.13672 93.1014C8.59606 93.1879 10.0677 93.1212 11.5073 93.1212C13.8526 83.0972 26.4255 79.5285 33.5352 88.0597C36.8452 84.1846 41.0066 82.4422 46.022 83.5865C51.0817 84.7406 54.1012 88.1561 55.4302 93.094L81.7031 93.0965ZM121.031 73.3698H99.6212C97.2809 73.3698 96.4614 72.5319 96.4589 70.1569C96.4589 65.6689 96.4589 61.1808 96.4589 56.6928C96.4589 54.4685 97.3178 53.606 99.4932 53.601C103.06 53.601 106.627 53.601 110.193 53.601H113.961C113.565 52.5729 113.235 51.6956 112.886 50.8257C112.174 49.0512 111.584 48.6607 109.627 48.6582H87.8702C87.4765 48.6582 87.0827 48.6928 86.721 48.7101V93.1039H91.7241C93.4147 87.3109 97.0864 83.6335 103.158 83.3418C109.925 83.0206 114.052 86.7746 116.018 93.136C116.919 93.136 117.78 93.1681 118.637 93.136C119.867 93.0767 120.938 92.3155 120.985 91.1786C121.098 88.5664 121.022 85.9467 121.022 83.2702C119.479 83.2702 118.049 83.2702 116.619 83.2702C114.83 83.2578 113.71 82.3039 113.705 80.7988C113.7 79.2937 114.822 78.3274 116.607 78.3274C118.068 78.3274 119.528 78.3274 121.036 78.3274L121.031 73.3698ZM119.875 68.3652C118.61 65.1894 117.414 62.1002 116.122 59.0406C116.009 58.7687 115.416 58.5636 115.044 58.5611C110.742 58.529 106.431 58.5389 102.134 58.5463C101.904 58.5621 101.675 58.5943 101.45 58.6427V68.3652H119.875ZM23.657 88.1981C22.1955 88.1918 20.7649 88.6212 19.5466 89.432C18.3283 90.2428 17.3771 91.3985 16.8134 92.7527C16.2497 94.1069 16.0989 95.5987 16.3802 97.039C16.6614 98.4793 17.362 99.8034 18.3932 100.843C19.4245 101.884 20.7399 102.593 22.1729 102.882C23.6059 103.17 25.0919 103.025 26.4428 102.465C27.7937 101.905 28.9487 100.955 29.7613 99.7348C30.574 98.5148 31.0078 97.0801 31.0078 95.6123C31.0078 93.6515 30.2344 91.7705 28.8568 90.381C27.4791 88.9915 25.6095 88.2066 23.657 88.1981ZM50.6953 95.5728C50.6875 94.1053 50.2461 92.6731 49.4272 91.4577C48.6083 90.2422 47.4486 89.2982 46.095 88.7451C44.7415 88.1921 43.2549 88.0548 41.8236 88.3508C40.3923 88.6468 39.0807 89.3627 38.0548 90.4078C37.029 91.4529 36.335 92.7803 36.0609 94.2217C35.7867 95.6632 35.9447 97.154 36.5148 98.5052C37.085 99.8564 38.0415 101.007 39.2635 101.812C40.4854 102.617 41.9177 103.04 43.3789 103.027C45.3313 103.006 47.1962 102.21 48.5668 100.814C49.9374 99.4176 50.7026 97.5335 50.6953 95.5728ZM111.234 95.5728C111.227 94.1049 110.785 92.6723 109.966 91.4567C109.146 90.2411 107.986 89.297 106.632 88.7443C105.278 88.1915 103.791 88.0549 102.359 88.3516C100.927 88.6484 99.6159 89.3653 98.5904 90.4114C97.5649 91.4575 96.8718 92.7858 96.5988 94.2279C96.3258 95.67 96.4852 97.1611 97.0568 98.5121C97.6284 99.8632 98.5865 101.013 99.8098 101.817C101.033 102.621 102.466 103.042 103.928 103.027C105.879 103.002 107.742 102.204 109.111 100.806C110.479 99.409 111.242 97.5253 111.234 95.5654V95.5728Z" fill="white"/>
<path d="M63.0001 107.97C62.5103 107.97 62.0317 107.823 61.6255 107.548C61.2194 107.273 60.9042 106.883 60.7203 106.427C60.5364 105.971 60.4922 105.47 60.5933 104.989C60.6944 104.507 60.9362 104.067 61.2878 103.725C61.6394 103.382 62.0847 103.153 62.5669 103.066C63.049 102.979 63.546 103.039 63.9942 103.238C64.4423 103.436 64.8214 103.764 65.0827 104.18C65.344 104.596 65.4757 105.081 65.4611 105.573C65.4376 106.214 65.1685 106.821 64.71 107.268C64.2515 107.715 63.6389 107.966 63.0001 107.97Z" fill="white"/>
<path d="M54.2957 75.8421C54.7018 76.3364 54.9528 76.6182 55.157 76.9221C55.4982 77.3934 55.6559 77.9736 55.6006 78.5535C55.5453 79.1334 55.2808 79.6731 54.8568 80.0707C53.9807 80.9283 52.642 81.1161 51.7289 80.2659C49.8611 78.536 48.0646 76.7294 46.3296 74.8684C46.1322 74.6666 45.9764 74.4275 45.8712 74.165C45.766 73.9026 45.7135 73.6218 45.7167 73.3388C45.7199 73.0559 45.7787 72.7764 45.8898 72.5164C46.0009 72.2563 46.1621 72.0209 46.3641 71.8236C48.0474 70.0228 49.7848 68.2755 51.5764 66.5818C52.5435 65.6674 53.8847 65.7638 54.8125 66.6238C55.7403 67.4839 55.8756 68.8481 55.0586 69.9701C54.874 70.2172 54.655 70.4644 54.3203 70.8647C57.8099 70.8647 61.1076 70.9587 64.3979 70.8252C66.0048 70.7585 66.8809 68.8481 66.1722 67.3529C65.8892 66.7622 65.4807 66.2333 65.205 65.6377C64.9541 65.1127 64.9015 64.514 65.0573 63.953C65.213 63.392 65.5664 62.9069 66.0516 62.588C66.5498 62.2495 67.1556 62.1093 67.7511 62.1947C68.3466 62.2802 68.8891 62.5851 69.273 63.0502C71.2171 65.5834 72.1154 68.3464 70.6856 71.4529C69.2877 74.4458 66.8563 75.8421 63.6005 75.8421H54.2957Z" fill="white"/>
<path d="M35.2406 59.3753L32.9519 63.0478C32.1915 64.2686 31.4483 65.5019 30.6657 66.7079C30.0652 67.6322 29.7749 68.5738 30.3532 69.6019C30.9315 70.63 31.8297 70.9538 32.947 70.9043C33.5211 70.8625 34.0977 70.8741 34.6697 70.9389C35.2237 71.0123 35.7342 71.2795 36.1114 71.6936C36.4886 72.1077 36.7083 72.642 36.7319 73.2028C36.8033 74.4384 36.0699 75.5802 34.869 75.7532C30.3778 76.3958 26.3172 74.6658 25.2541 69.7205C24.8505 67.8522 25.2763 66.1197 26.2385 64.5306C27.6683 62.1803 29.1301 59.8498 30.6682 57.3636C30.2326 57.3957 29.9299 57.4229 29.6469 57.4352C29.069 57.4785 28.4945 57.3155 28.0245 56.9751C27.5545 56.6346 27.2192 56.1386 27.0777 55.5743C26.8094 54.4003 27.3607 53.1029 28.5149 52.7519C30.9758 52.0006 33.4663 51.3325 35.9863 50.7476C37.0617 50.5005 38.174 51.2987 38.5161 52.4776C39.1707 54.7266 39.7859 56.9879 40.3274 59.269C40.6719 60.7271 39.9484 61.9282 38.6761 62.2891C37.3176 62.6771 36.1315 62.0024 35.6171 60.5467C35.5236 60.223 35.4375 59.9239 35.2406 59.3753Z" fill="white"/>
<path d="M59.3085 46.959C59.5546 46.2398 59.6555 45.8048 59.8351 45.402C60.0654 44.8914 60.4617 44.4746 60.959 44.2199C61.4563 43.9653 62.0249 43.888 62.5717 44.0007C63.7456 44.2479 64.7103 45.3155 64.4519 46.5117C63.8809 49.1536 63.1796 51.7733 62.3625 54.3485C62.0131 55.4482 60.7408 55.8313 59.4291 55.5001C57.3693 54.9762 55.3193 54.4078 53.2767 53.8394C51.623 53.3822 50.8503 52.2305 51.1825 50.7625C51.4778 49.4551 52.6271 48.7854 54.2267 48.9707C54.3399 48.9707 54.4531 48.9905 54.7976 49.0177C53.166 46.4301 51.6968 43.934 50.0554 41.5565C49.1522 40.2467 47.2278 40.4123 46.2458 41.7172C45.8767 42.2114 45.6035 42.7724 45.2147 43.247C44.8387 43.7134 44.3049 44.0246 43.7151 44.1213C43.1253 44.218 42.5206 44.0934 42.0164 43.7712C41.5122 43.449 41.1437 42.9517 40.981 42.3742C40.8184 41.7967 40.873 41.1793 41.1345 40.6396C42.4609 38.0076 44.3731 36.075 47.4714 35.8006C50.6903 35.5139 53.0799 36.893 54.7558 39.6338C56.2102 42.0088 57.6991 44.3591 59.3085 46.959Z" fill="white"/>
<path d="M26.0859 95.6603C26.0762 96.1514 25.9209 96.6284 25.64 97.0305C25.3591 97.4326 24.9652 97.7415 24.5086 97.9178C24.0521 98.0941 23.5536 98.1298 23.0768 98.0202C22.6 97.9107 22.1665 97.661 21.8316 97.3029C21.4968 96.9449 21.2758 96.4947 21.1968 96.01C21.1179 95.5252 21.1846 95.0278 21.3884 94.5813C21.5922 94.1347 21.9239 93.7593 22.3411 93.503C22.7583 93.2466 23.2421 93.1209 23.7308 93.1419C24.3712 93.1751 24.974 93.4557 25.413 93.9251C25.852 94.3946 26.0931 95.0163 26.0859 95.6603Z" fill="white"/>
<path d="M45.7735 95.5961C45.7788 96.0883 45.6376 96.5708 45.368 96.9819C45.0984 97.393 44.7127 97.7139 44.2604 97.9035C43.808 98.093 43.3096 98.1426 42.829 98.0458C42.3484 97.9491 41.9075 97.7104 41.5629 97.3604C41.2182 97.0104 40.9855 96.565 40.8946 96.0813C40.8036 95.5976 40.8585 95.0977 41.0523 94.6455C41.2461 94.1934 41.5699 93.8097 41.9823 93.5436C42.3946 93.2774 42.8767 93.141 43.3667 93.1518C44.0038 93.1708 44.6091 93.4352 45.0572 93.8903C45.5053 94.3453 45.7618 94.9562 45.7735 95.5961Z" fill="white"/>
<path d="M103.793 98.0847C103.303 98.0723 102.829 97.9139 102.43 97.6296C102.031 97.3452 101.726 96.948 101.553 96.4885C101.38 96.029 101.347 95.5281 101.459 95.0498C101.57 94.5715 101.821 94.1375 102.18 93.8032C102.538 93.4689 102.988 93.2494 103.471 93.1729C103.954 93.0963 104.449 93.1661 104.893 93.3734C105.336 93.5807 105.708 93.916 105.961 94.3365C106.214 94.757 106.336 95.2437 106.313 95.7344C106.276 96.3773 105.994 96.9811 105.524 97.4193C105.054 97.8575 104.434 98.096 103.793 98.0847Z" fill="white"/>
</g>
<defs>
<clipPath id="clip0_19_314">
<rect width="126" height="89" fill="white" transform="translate(0 19)"/>
</clipPath>
</defs>
</svg>
